<svg width="36" height="36" viewBox="0 0 36 36" fill="none" xmlns="http://www.w3.org/2000/svg">
<g clip-path="url(#clip0_24_48)">
<path d="M18 -0.0380859C8.05388 -0.0380859 -0.0393677 8.05291 -0.0393677 18.0002C-0.0393677 27.9474 8.05388 36.0384 18 36.0384C27.9461 36.0384 36.0394 27.9474 36.0394 18.0002C36.0394 8.05291 27.9461 -0.0380859 18 -0.0380859ZM18 34.8369C8.71651 34.8369 1.16438 27.2837 1.16438 18.0002C1.16438 8.71666 8.71651 1.16341 18 1.16341C27.2835 1.16341 34.8356 8.71666 34.8356 18.0002C34.8356 27.2837 27.2835 34.8369 18 34.8369Z" fill="black"/>
<path d="M21.9375 7.87505H18.936C15.1133 7.8368 14.625 10.2027 14.625 12.7632V14.625H12.9375C12.8612 14.6149 12.7836 14.6224 12.7108 14.6471C12.6379 14.6717 12.5716 14.7129 12.5172 14.7673C12.4628 14.8217 12.4217 14.8879 12.397 14.9608C12.3724 15.0337 12.3648 15.1113 12.375 15.1875V18.5625C12.3648 18.6388 12.3724 18.7164 12.397 18.7893C12.4217 18.8622 12.4628 18.9284 12.5172 18.9828C12.5716 19.0372 12.6379 19.0784 12.7108 19.103C12.7836 19.1277 12.8612 19.1352 12.9375 19.125H14.625V27.5625C14.6156 27.639 14.6239 27.7165 14.649 27.7892C14.6742 27.862 14.7157 27.928 14.7703 27.9823C14.8249 28.0366 14.8911 28.0776 14.964 28.1024C15.0369 28.1271 15.1145 28.1349 15.1909 28.125H18.6278C18.9596 28.1633 19.2285 27.8944 19.1228 27.5625L19.125 19.125H21.9375C22.0138 19.1352 22.0914 19.1277 22.1643 19.103C22.2372 19.0784 22.3034 19.0372 22.3578 18.9828C22.4122 18.9284 22.4533 18.8622 22.478 18.7893C22.5027 18.7164 22.5102 18.6388 22.5 18.5625V15.1875C22.5102 15.1113 22.5027 15.0337 22.478 14.9608C22.4533 14.8879 22.4122 14.8217 22.3578 14.7673C22.3034 14.7129 22.2372 14.6717 22.1643 14.6471C22.0914 14.6224 22.0138 14.6149 21.9375 14.625H19.1216L19.125 12.9375C19.2341 12.2187 19.2341 12.3357 19.9013 12.375H21.9139C22.0703 12.3402 22.2368 12.3593 22.3538 12.2457C22.4708 12.132 22.5383 11.9768 22.4989 11.8125V8.43755C22.5093 8.36133 22.5019 8.28376 22.4774 8.21086C22.4529 8.13795 22.4118 8.0717 22.3575 8.01726C22.3032 7.96282 22.237 7.92166 22.1642 7.89699C22.0913 7.87232 22.0137 7.86481 21.9375 7.87505ZM21.3356 11.187L19.9249 11.133C18.1778 11.133 18.0315 12.0814 18.0315 13.0523L18.027 15.1853C18.0269 15.2643 18.0423 15.3425 18.0724 15.4155C18.1025 15.4886 18.1468 15.5549 18.2026 15.6108C18.2584 15.6667 18.3246 15.7111 18.3976 15.7413C18.4706 15.7716 18.5488 15.7872 18.6278 15.7872H21.375V17.9607H18.63C18.4706 17.9607 18.3177 18.0239 18.2048 18.1366C18.092 18.2492 18.0284 18.402 18.0281 18.5614L18.027 27H15.75V18.5625C15.75 18.2307 15.5239 17.9618 15.1909 17.9618H13.5V15.7883H15.1909C15.2698 15.7884 15.348 15.773 15.421 15.7429C15.4939 15.7127 15.5603 15.6686 15.6161 15.6128C15.7286 15.4992 15.7489 15.3462 15.7489 15.1864V12.762C15.7489 10.2398 16.2585 9.0383 18.9349 9.0383H21.3345L21.3356 11.187Z" fill="black"/>
</g>
<defs>
<clipPath id="clip0_24_48">
<rect width="36" height="36" fill="white"/>
</clipPath>
</defs>
</svg>
