<svg width="36" height="36" viewBox="0 0 36 36" fill="none" xmlns="http://www.w3.org/2000/svg">
<path d="M11.25 13.5H5.25C5.05109 13.5 4.86033 13.579 4.71967 13.7196C4.57902 13.8603 4.5 14.051 4.5 14.25V32.25C4.5 32.4489 4.57902 32.6396 4.71967 32.7803C4.86033 32.9209 5.05109 33 5.25 33H11.25C11.4489 33 11.6397 32.9209 11.7803 32.7803C11.921 32.6396 12 32.4489 12 32.25V14.25C12 14.051 11.921 13.8603 11.7803 13.7196C11.6397 13.579 11.4489 13.5 11.25 13.5ZM10.5 31.5H6V15H10.5V31.5ZM27 13.5C25.3725 13.5 23.79 14.037 22.5 15.0285V14.25C22.5 14.051 22.421 13.8603 22.2803 13.7196C22.1397 13.579 21.9489 13.5 21.75 13.5H15.75C15.5511 13.5 15.3603 13.579 15.2197 13.7196C15.079 13.8603 15 14.051 15 14.25V32.25C15 32.4489 15.079 32.6396 15.2197 32.7803C15.3603 32.9209 15.5511 33 15.75 33H21.75C21.9489 33 22.1397 32.9209 22.2803 32.7803C22.421 32.6396 22.5 32.4489 22.5 32.25V24C22.5 23.4032 22.7371 22.8309 23.159 22.409C23.581 21.987 24.1533 21.75 24.75 21.75C25.3467 21.75 25.919 21.987 26.341 22.409C26.7629 22.8309 27 23.4032 27 24V32.25C27 32.4489 27.079 32.6396 27.2197 32.7803C27.3603 32.9209 27.5511 33 27.75 33H33.75C33.9489 33 34.1397 32.9209 34.2803 32.7803C34.421 32.6396 34.5 32.4489 34.5 32.25V21C34.4976 19.0116 33.7067 17.1053 32.3007 15.6993C30.8947 14.2933 28.9884 13.5023 27 13.5ZM33 31.5H28.5V24C28.5 23.0054 28.1049 22.0516 27.4017 21.3483C26.6984 20.645 25.7446 20.25 24.75 20.25C23.7554 20.25 22.8016 20.645 22.0984 21.3483C21.3951 22.0516 21 23.0054 21 24V31.5H16.5V15H21V16.8045C21 16.9598 21.0482 17.1113 21.1379 17.2381C21.2277 17.3648 21.3546 17.4606 21.5012 17.5121C21.6477 17.5637 21.8066 17.5684 21.956 17.5258C22.1054 17.4831 22.2378 17.3951 22.335 17.274C23.1053 16.2976 24.1611 15.5859 25.3551 15.2382C26.5492 14.8905 27.822 14.924 28.9961 15.3342C30.1701 15.7444 31.1869 16.5107 31.9047 17.5264C32.6224 18.542 33.0053 19.7563 33 21V31.5ZM8.802 3.00296C8.62575 2.99054 8.44888 2.98954 8.2725 2.99996C7.71116 2.96176 7.14794 3.03923 6.61775 3.22757C6.08757 3.4159 5.60169 3.71109 5.19023 4.09485C4.77877 4.47861 4.45049 4.94276 4.22571 5.45856C4.00094 5.97436 3.88446 6.53082 3.8835 7.09346C3.87885 7.65023 3.98862 8.20201 4.20601 8.71461C4.4234 9.2272 4.74378 9.68967 5.14727 10.0733C5.55077 10.457 6.02878 10.7537 6.55167 10.945C7.07456 11.1363 7.63118 11.2181 8.187 11.1855H8.229C8.76627 11.2231 9.3057 11.1545 9.81647 10.9837C10.3272 10.8128 10.7994 10.5431 11.2059 10.1897C11.6124 9.83644 11.9453 9.40653 12.1857 8.92455C12.4261 8.44258 12.5691 7.91798 12.6068 7.38071C12.6444 6.84344 12.5758 6.30402 12.405 5.79325C12.2341 5.28248 11.9643 4.81036 11.611 4.40385C11.2577 3.99733 10.8278 3.66439 10.3458 3.42403C9.86387 3.18366 9.33927 3.04058 8.802 3.00296ZM8.7495 9.68996C8.57628 9.70571 8.40193 9.7042 8.229 9.68546H8.187C7.826 9.7126 7.4633 9.66416 7.12206 9.54324C6.78083 9.42233 6.46855 9.23158 6.20518 8.9832C5.94181 8.73481 5.73312 8.43423 5.59244 8.10065C5.45176 7.76708 5.38219 7.40783 5.38816 7.04586C5.39413 6.68388 5.47551 6.32712 5.6271 5.99837C5.7787 5.66961 5.99718 5.37608 6.2686 5.13651C6.54002 4.89694 6.85842 4.71659 7.20345 4.60699C7.54849 4.49739 7.91259 4.46093 8.2725 4.49996C8.96074 4.43671 9.64592 4.64944 10.1773 5.09137C10.7087 5.5333 11.0427 6.16822 11.106 6.85646C11.1693 7.5447 10.9565 8.22987 10.5146 8.76126C10.0727 9.29264 9.43774 9.62671 8.7495 9.68996Z" fill="black"/>
</svg>
