<svg width="36" height="36" viewBox="0 0 36 36" fill="none" xmlns="http://www.w3.org/2000/svg">
<path d="M29.055 12.4124V13.1624C29.055 20.7149 23.325 29.3699 12.84 29.3699C9.74471 29.3766 6.71515 28.4771 4.125 26.7824C4.57483 26.8435 5.02858 26.8711 5.4825 26.8649C8.04826 26.872 10.5419 26.0161 12.5625 24.4349C11.3705 24.4174 10.2144 24.0245 9.25842 23.3123C8.30246 22.6 7.59532 21.6046 7.2375 20.4674C7.59256 20.5427 7.95455 20.5804 8.3175 20.5799C8.82432 20.58 9.32885 20.5119 9.8175 20.3774C8.52644 20.12 7.36494 19.422 6.53175 18.4028C5.69856 17.3835 5.24547 16.1064 5.25 14.7899V14.7149C6.0399 15.1562 6.92548 15.3981 7.83 15.4199C6.62595 14.6276 5.76988 13.4054 5.43673 12.0031C5.10357 10.6007 5.31846 9.12412 6.0375 7.87492C7.47019 9.63703 9.25769 11.0779 11.2838 12.1039C13.3099 13.1299 15.5292 13.7179 17.7975 13.8299C17.6852 13.4042 17.6322 12.9651 17.64 12.5249C17.5978 11.3616 17.9151 10.2135 18.5488 9.23704C19.1825 8.26054 20.1017 7.50308 21.1813 7.06778C22.261 6.63248 23.4485 6.54051 24.5823 6.80438C25.7161 7.06825 26.741 7.67514 27.5175 8.54242C28.7938 8.28484 30.0182 7.81589 31.14 7.15492C30.7146 8.49844 29.8095 9.63839 28.5975 10.3574C29.7297 10.2014 30.8335 9.88314 31.875 9.41242C31.1202 10.5716 30.1654 11.5875 29.055 12.4124Z" stroke="black" stroke-width="0.75" stroke-linecap="round" stroke-linejoin="round"/>
</svg>
